<svg width="576" height="512" viewBox="0 0 576 512" fill="none" xmlns="http://www.w3.org/2000/svg">
<g clip-path="url(#clip0_201_2)">
<path d="M543.8 287.6C560.8 287.6 575.8 273.5 575.8 255.5C576.8 246.5 572.8 238.5 564.8 231.5L309.4 7C303.4 2 295.4 0 288.4 0C281.4 0 273.4 1 266.4 8L10 231.5C3 238.5 0 246.5 0 255.5C0 273.6 14 287.6 32 287.6H64.1V357.2C64 358.1 64 359.1 64 360V472C64 494.1 81.9 512 104 512H120C121.2 512 122.4 511.9 123.6 511.8C125.1 511.9 126.6 512 128.1 512H160H184C206.1 512 224 494.1 224 472V448V384C224 366.3 238.3 352 256 352H320C337.7 352 352 366.3 352 384V448V472C352 494.1 369.9 512 392 512H416H448.5C449.9 512 451.3 512 452.7 511.9C453.8 512 454.9 512 456 512H472C494.1 512 512 494.1 512 472V455.9C512.3 453.2 512.5 450.5 512.5 447.8L511.8 287.6H543.8Z" fill="white"/>
</g>
<defs>
<clipPath id="clip0_201_2">
<rect width="576" height="512" fill="white"/>
</clipPath>
</defs>
</svg>
